<svg xmlns="http://www.w3.org/2000/svg" width="40" height="40" viewBox="0 0 51.13 51.131">
  <g id="Group_10451" data-name="Group 10451" transform="translate(-2890.242 -253.398)">
    <path id="Path_315" data-name="Path 315" d="M2915.832,281.066a10.724,10.724,0,1,1,10.723-10.724A10.736,10.736,0,0,1,2915.832,281.066Zm0-19.228a8.5,8.5,0,1,0,8.5,8.5A8.514,8.514,0,0,0,2915.832,261.838Z" fill="#707070"/>
    <path id="Path_316" data-name="Path 316" d="M2915.807,304.529a25.528,25.528,0,0,1-16.664-6.2l-.28-.241v0l-.058-.051c-.261-.231-.522-.475-.778-.722s-.511-.506-.755-.763l-.041-.044-.087-.1a25.563,25.563,0,1,1,37.377-.049l-.106.114v0l-.012.013q-.765.807-1.538,1.5l-.162.145-.174.143A25.519,25.519,0,0,1,2915.807,304.529Zm-.157-19.235c-6.713,0-12.8,4.047-15.884,10.563l-.079.165.134.125a23.424,23.424,0,0,0,32.021-.044l.133-.125-.078-.165c-3.094-6.488-9.173-10.519-15.866-10.519Zm.157-29.817a23.465,23.465,0,0,0-17.867,38.7l.239.28.172-.326a19.764,19.764,0,0,1,17.3-10.881h.381a19.762,19.762,0,0,1,17.272,10.833l.173.326.238-.281a23.464,23.464,0,0,0-17.907-38.653Z" fill="#707070"/>
  </g>
</svg>